<svg width="494" height="149" viewBox="0 0 494 149" fill="none" xmlns="http://www.w3.org/2000/svg">
<mask id="mask0_14_14" style="mask-type:alpha" maskUnits="userSpaceOnUse" x="0" y="0" width="120" height="120">
<rect width="119.758" height="120" rx="25" fill="#1479FF"/>
</mask>
<g mask="url(#mask0_14_14)">
<rect width="119.758" height="120" rx="25" fill="#1479FF"/>
<rect x="28.9414" y="120" width="120" height="9.9798" transform="rotate(-90 28.9414 120)" fill="#F9FCFF"/>
<rect x="79.8384" y="120" width="120" height="9.9798" transform="rotate(-90 79.8384 120)" fill="#F9FCFF"/>
<rect width="169.529" height="9.9899" transform="matrix(0.706391 0.707821 -0.706391 0.707821 6.17987 1)" fill="#F9FCFF"/>
</g>
<path d="M143.689 120V60H155.089L155.689 70.32C157.689 66.32 160.449 63.4 163.969 61.56C167.569 59.72 171.569 58.8 175.969 58.8C180.209 58.8 184.009 59.64 187.369 61.32C190.809 62.92 193.529 65.4 195.529 68.76C197.529 72.04 198.529 76.16 198.529 81.12V120H185.689V85.08C185.689 79.16 184.449 75.08 181.969 72.84C179.569 70.52 176.529 69.36 172.849 69.36C170.209 69.36 167.649 69.96 165.169 71.16C162.689 72.36 160.609 74.36 158.929 77.16C157.329 79.88 156.529 83.52 156.529 88.08V120H143.689ZM244.026 58.8C249.866 58.8 255.026 60.04 259.506 62.52C263.986 65 267.466 68.6 269.946 73.32C272.506 77.96 273.786 83.52 273.786 90C273.786 96.48 272.506 102.08 269.946 106.8C267.466 111.44 263.986 115 259.506 117.48C255.026 119.96 249.866 121.2 244.026 121.2C238.186 121.2 233.026 119.96 228.546 117.48C224.066 115 220.546 111.44 217.986 106.8C215.426 102.08 214.146 96.48 214.146 90C214.146 83.52 215.426 77.96 217.986 73.32C220.546 68.6 224.066 65 228.546 62.52C233.026 60.04 238.186 58.8 244.026 58.8ZM244.026 68.88C238.746 68.88 234.586 70.72 231.546 74.4C228.506 78 226.986 83.2 226.986 90C226.986 96.8 228.506 102.04 231.546 105.72C234.586 109.32 238.746 111.12 244.026 111.12C249.306 111.12 253.426 109.32 256.386 105.72C259.426 102.04 260.946 96.8 260.946 90C260.946 83.2 259.426 78 256.386 74.4C253.426 70.72 249.306 68.88 244.026 68.88ZM327.279 60V70.08H306.639V102C306.639 104.88 307.439 107.04 309.039 108.48C310.639 109.84 312.719 110.52 315.279 110.52C317.519 110.52 319.399 110.2 320.919 109.56C322.519 108.84 323.999 107.88 325.359 106.68L328.239 116.04C326.399 117.64 324.119 118.92 321.399 119.88C318.759 120.76 315.799 121.2 312.519 121.2C307.239 121.2 302.799 119.92 299.199 117.36C295.599 114.72 293.799 110.32 293.799 104.16V70.08H282.279V60H293.799V45.96L306.639 42.36V60H327.279ZM346.458 49.92C343.658 49.92 341.498 49.24 339.978 47.88C338.538 46.44 337.818 44.44 337.818 41.88C337.818 39.32 338.538 37.36 339.978 36C341.498 34.64 343.658 33.96 346.458 33.96C349.178 33.96 351.258 34.64 352.698 36C354.218 37.36 354.978 39.32 354.978 41.88C354.978 44.44 354.218 46.44 352.698 47.88C351.258 49.24 349.178 49.92 346.458 49.92ZM352.818 60V120H339.978V60H352.818ZM398.828 58.8C405.948 58.8 411.628 60.36 415.868 63.48C420.108 66.6 423.148 70.64 424.988 75.6L412.868 80.4C411.828 76.72 410.148 73.92 407.828 72C405.588 70 402.628 69 398.948 69C393.588 69 389.388 70.84 386.348 74.52C383.388 78.12 381.908 83.32 381.908 90.12C381.908 96.84 383.428 102 386.468 105.6C389.508 109.2 393.668 111 398.948 111C403.108 111 406.388 110 408.788 108C411.268 106 412.908 103.12 413.708 99.36L425.348 103.32C423.668 108.76 420.588 113.12 416.108 116.4C411.628 119.6 405.988 121.2 399.188 121.2C393.268 121.2 388.028 119.96 383.468 117.48C378.988 115 375.468 111.44 372.908 106.8C370.348 102.08 369.068 96.48 369.068 90C369.068 83.52 370.348 77.96 372.908 73.32C375.468 68.6 378.988 65 383.468 62.52C387.948 60.04 393.068 58.8 398.828 58.8ZM463.091 121.2C457.091 121.2 451.611 120.04 446.651 117.72C441.691 115.4 437.771 112.12 434.891 107.88L443.771 100.2C445.531 103.48 448.051 106.12 451.331 108.12C454.691 110.04 458.691 111 463.331 111C467.011 111 469.931 110.36 472.091 109.08C474.251 107.8 475.331 106 475.331 103.68C475.331 102.16 474.811 100.84 473.771 99.72C472.811 98.52 470.931 97.6 468.131 96.96L455.531 94.32C449.131 93.04 444.571 90.96 441.851 88.08C439.131 85.2 437.771 81.6 437.771 77.28C437.771 74 438.731 70.96 440.651 68.16C442.651 65.36 445.491 63.12 449.171 61.44C452.851 59.68 457.291 58.8 462.491 58.8C468.411 58.8 473.491 59.88 477.731 62.04C482.051 64.12 485.331 67.12 487.571 71.04L478.691 78.48C477.091 75.28 474.811 72.92 471.851 71.4C468.971 69.8 465.931 69 462.731 69C458.811 69 455.771 69.72 453.611 71.16C451.531 72.52 450.491 74.32 450.491 76.56C450.491 78.08 451.091 79.48 452.291 80.76C453.491 81.96 455.651 82.88 458.771 83.52L472.451 86.4C478.211 87.52 482.251 89.44 484.571 92.16C486.971 94.8 488.171 98.04 488.171 101.88C488.171 107.64 485.931 112.32 481.451 115.92C476.971 119.44 470.851 121.2 463.091 121.2Z" fill="#193B68"/>
</svg>
